<svg width="726" height="176" viewBox="0 0 726 176" fill="none" xmlns="http://www.w3.org/2000/svg">
<path d="M288.4 135.328V46.624H348.387V63.392H308.396V80.8H343.901V97.184H308.396V118.56H351.335V135.328H288.4Z" fill="#322153"/>
<path d="M360.144 101.664C360.144 96.8 360.913 92.2347 362.452 87.968C364.075 83.616 366.382 79.8613 369.373 76.704C372.364 73.4613 375.996 70.9013 380.268 69.024C384.541 67.1467 389.412 66.208 394.881 66.208C398.47 66.208 401.759 66.5493 404.75 67.232C407.741 67.8293 410.646 68.7253 413.466 69.92L409.493 85.152C407.698 84.4693 405.733 83.872 403.597 83.36C401.46 82.848 399.068 82.592 396.419 82.592C390.779 82.592 386.549 84.3413 383.729 87.84C380.995 91.3387 379.627 95.9467 379.627 101.664C379.627 107.723 380.909 112.416 383.473 115.744C386.122 119.072 390.693 120.736 397.188 120.736C399.495 120.736 401.973 120.523 404.622 120.096C407.271 119.669 409.706 118.987 411.928 118.048L414.62 133.664C412.398 134.603 409.621 135.413 406.288 136.096C402.956 136.779 399.281 137.12 395.265 137.12C389.113 137.12 383.815 136.224 379.371 134.432C374.928 132.555 371.253 130.037 368.348 126.88C365.528 123.723 363.434 120.011 362.067 115.744C360.785 111.392 360.144 106.699 360.144 101.664Z" fill="#322153"/>
<path d="M487.247 101.536C487.247 106.827 486.478 111.691 484.939 116.128C483.401 120.48 481.18 124.235 478.274 127.392C475.369 130.464 471.865 132.853 467.764 134.56C463.747 136.267 459.218 137.12 454.177 137.12C449.221 137.12 444.692 136.267 440.59 134.56C436.574 132.853 433.113 130.464 430.208 127.392C427.302 124.235 425.038 120.48 423.414 116.128C421.791 111.691 420.979 106.827 420.979 101.536C420.979 96.2453 421.791 91.424 423.414 87.072C425.123 82.72 427.43 79.008 430.336 75.936C433.327 72.864 436.83 70.4747 440.846 68.768C444.948 67.0613 449.391 66.208 454.177 66.208C459.048 66.208 463.491 67.0613 467.507 68.768C471.609 70.4747 475.112 72.864 478.018 75.936C480.923 79.008 483.188 82.72 484.811 87.072C486.435 91.424 487.247 96.2453 487.247 101.536ZM467.764 101.536C467.764 95.648 466.567 91.04 464.175 87.712C461.867 84.2987 458.535 82.592 454.177 82.592C449.819 82.592 446.443 84.2987 444.051 87.712C441.658 91.04 440.462 95.648 440.462 101.536C440.462 107.424 441.658 112.117 444.051 115.616C446.443 119.029 449.819 120.736 454.177 120.736C458.535 120.736 461.867 119.029 464.175 115.616C466.567 112.117 467.764 107.424 467.764 101.536Z" fill="#322153"/>
<path d="M528.958 136.608C523.404 136.523 518.875 135.925 515.372 134.816C511.954 133.707 509.219 132.171 507.168 130.208C505.203 128.16 503.836 125.728 503.067 122.912C502.383 120.011 502.041 116.768 502.041 113.184V39.072L521.14 36V109.344C521.14 111.051 521.268 112.587 521.524 113.952C521.781 115.317 522.25 116.469 522.934 117.408C523.703 118.347 524.771 119.115 526.139 119.712C527.506 120.309 529.343 120.693 531.65 120.864L528.958 136.608Z" fill="#322153"/>
<path d="M539.393 102.176C539.393 96.2027 540.29 90.9973 542.085 86.56C543.965 82.0373 546.4 78.2827 549.391 75.296C552.382 72.3093 555.8 70.048 559.645 68.512C563.576 66.976 567.592 66.208 571.694 66.208C581.264 66.208 588.827 69.152 594.381 75.04C599.936 80.8427 602.713 89.4187 602.713 100.768C602.713 101.877 602.67 103.115 602.585 104.48C602.499 105.76 602.414 106.912 602.328 107.936H559.004C559.431 111.861 561.269 114.976 564.516 117.28C567.763 119.584 572.121 120.736 577.59 120.736C581.093 120.736 584.511 120.437 587.844 119.84C591.262 119.157 594.039 118.347 596.176 117.408L598.739 132.896C597.714 133.408 596.347 133.92 594.638 134.432C592.928 134.944 591.006 135.371 588.87 135.712C586.819 136.139 584.597 136.48 582.204 136.736C579.812 136.992 577.419 137.12 575.026 137.12C568.959 137.12 563.661 136.224 559.132 134.432C554.689 132.64 550.972 130.208 547.981 127.136C545.075 123.979 542.896 120.267 541.444 116C540.077 111.733 539.393 107.125 539.393 102.176ZM584.255 94.88C584.17 93.2587 583.871 91.68 583.358 90.144C582.931 88.608 582.204 87.2427 581.179 86.048C580.239 84.8533 579 83.872 577.462 83.104C576.009 82.336 574.172 81.952 571.95 81.952C569.814 81.952 567.977 82.336 566.438 83.104C564.9 83.7867 563.619 84.7253 562.593 85.92C561.568 87.1147 560.756 88.5227 560.158 90.144C559.645 91.68 559.26 93.2587 559.004 94.88H584.255Z" fill="#322153"/>
<path d="M616.81 51.232L635.909 48.16V68H658.853V83.872H635.909V107.552C635.909 111.563 636.592 114.763 637.96 117.152C639.412 119.541 642.275 120.736 646.548 120.736C648.598 120.736 650.692 120.565 652.828 120.224C655.05 119.797 657.058 119.243 658.853 118.56L661.544 133.408C659.237 134.347 656.674 135.157 653.854 135.84C651.034 136.523 647.573 136.864 643.471 136.864C638.259 136.864 633.943 136.181 630.525 134.816C627.107 133.365 624.373 131.403 622.322 128.928C620.271 126.368 618.818 123.296 617.964 119.712C617.195 116.128 616.81 112.16 616.81 107.808V51.232Z" fill="#322153"/>
<path d="M697.665 122.016C699.545 122.016 701.34 121.973 703.049 121.888C704.758 121.803 706.125 121.675 707.151 121.504V107.04C706.381 106.869 705.228 106.699 703.69 106.528C702.152 106.357 700.742 106.272 699.46 106.272C697.665 106.272 695.956 106.4 694.333 106.656C692.795 106.827 691.427 107.211 690.231 107.808C689.035 108.405 688.095 109.216 687.411 110.24C686.728 111.264 686.386 112.544 686.386 114.08C686.386 117.067 687.368 119.157 689.334 120.352C691.385 121.461 694.162 122.016 697.665 122.016ZM696.127 66.208C701.767 66.208 706.467 66.848 710.227 68.128C713.987 69.408 716.978 71.2427 719.199 73.632C721.506 76.0213 723.13 78.9227 724.07 82.336C725.01 85.7493 725.48 89.5467 725.48 93.728V133.408C722.746 134.005 718.943 134.688 714.072 135.456C709.201 136.309 703.305 136.736 696.384 136.736C692.026 136.736 688.052 136.352 684.463 135.584C680.96 134.816 677.926 133.579 675.362 131.872C672.799 130.08 670.834 127.776 669.466 124.96C668.099 122.144 667.415 118.688 667.415 114.592C667.415 110.667 668.185 107.339 669.723 104.608C671.346 101.877 673.483 99.7013 676.132 98.08C678.781 96.4587 681.814 95.3067 685.232 94.624C688.65 93.856 692.196 93.472 695.871 93.472C698.349 93.472 700.528 93.6 702.408 93.856C704.373 94.0267 705.954 94.2827 707.151 94.624V92.832C707.151 89.5893 706.168 86.9867 704.202 85.024C702.237 83.0613 698.819 82.08 693.948 82.08C690.701 82.08 687.497 82.336 684.335 82.848C681.173 83.2747 678.439 83.9147 676.132 84.768L673.696 69.408C674.807 69.0667 676.174 68.7253 677.798 68.384C679.507 67.9573 681.344 67.616 683.309 67.36C685.275 67.0187 687.326 66.7627 689.462 66.592C691.684 66.336 693.906 66.208 696.127 66.208Z" fill="#322153"/>
<path d="M58.6492 7.39845L40.3242 42.3442C39.1409 44.6006 39.9201 47.4216 42.0767 48.69L70.7706 65.5687C72.9569 66.8547 75.7365 66.0638 76.9799 63.8017L112.053 0.00256348H70.6583C65.6478 0.00256348 61.039 2.84068 58.6492 7.39845V7.39845Z" fill="#29A361"/>
<path d="M112.052 0L76.9802 63.7998C75.7346 66.0616 72.9569 66.8544 70.7714 65.5692L63.282 61.1654C65.1078 61.4697 67.0075 60.6011 67.9745 58.8395L100.327 0H112.052Z" fill="#248F55"/>
<path d="M150.428 33.8369L137.789 7.79601C135.47 3.01828 130.745 0.00256348 125.579 0.00256348H89.0355L117.094 49.2664C117.002 49.3091 116.909 49.3519 116.817 49.3946C115.052 50.2169 115.124 52.8371 116.931 53.5552L141.16 63.1841C142.283 63.6303 143.542 63.0501 143.973 61.8885L153.313 36.7181C154.004 34.8562 152.19 33.0596 150.428 33.8369V33.8369Z" fill="#34CB79"/>
<path d="M153.314 36.716L143.971 61.8859C143.542 63.051 142.281 63.6316 141.159 63.1831L133.828 60.2685L142.567 36.716C143.064 35.3803 142.271 34.0795 141.132 33.7383C140.048 33.413 139.122 32.6782 138.616 31.6343L127.043 7.795C124.726 3.01882 120.002 0 114.834 0H125.581C130.745 0 135.468 3.01882 137.79 7.795L150.428 33.8378C152.192 33.0609 154.003 34.8544 153.314 36.716Z" fill="#2FB86E"/>
<path d="M126.012 134.237C125.672 132.791 123.87 132.172 122.769 133.31L103.833 152.907C103.077 153.689 103.077 154.956 103.833 155.738L122.843 175.41C123.935 176.541 125.719 175.937 126.078 174.516H154.033C159.179 174.516 163.89 171.523 166.218 166.774L182.169 134.237H126.012V134.237Z" fill="#29A361"/>
<path d="M149.611 134.237L158.675 148.431C160.724 151.64 160.951 155.741 159.269 159.171L155.541 166.774C153.216 171.522 148.504 174.517 143.359 174.517H154.032C159.177 174.517 163.889 171.522 166.218 166.774L182.168 134.238H149.611V134.237Z" fill="#248F55"/>
<path d="M87.8632 170.776V136.142C87.8632 133.539 85.8241 131.429 83.3085 131.429H8.28284L27.5906 168.113C29.9838 172.659 34.5866 175.489 39.5896 175.489H83.3085C85.8237 175.489 87.8632 173.379 87.8632 170.776Z" fill="#29A361"/>
<path d="M40.1015 131.432L23.4396 160.229L8.28284 131.432H40.1015Z" fill="#248F55"/>
<path d="M87.8625 136.143V170.778C87.8625 173.38 85.8238 175.49 83.3093 175.49H71.3595C73.874 175.49 75.9127 173.38 75.9127 170.778V136.143C75.9127 133.541 73.874 131.431 71.3595 131.431H83.3093C85.8238 131.431 87.8625 133.541 87.8625 136.143Z" fill="#248F55"/>
<path d="M51.2097 100.826L47.8406 74.5869C47.6742 73.2904 46.5236 72.3795 45.2713 72.5517L19.8188 76.0516C17.9022 76.3151 17.1879 78.728 18.5007 80.0703L2.43747 104.031C-0.507741 108.424 -0.806656 114.16 1.66465 118.855L19.1448 152.067L47.5274 103.003C47.5375 103.01 47.5473 103.019 47.5574 103.026C49.1774 104.299 51.4775 102.913 51.2097 100.826Z" fill="#34CB79"/>
<path d="M47.5557 103.026C47.5478 103.018 47.5366 103.01 47.5287 103.002L19.145 152.065L13.3075 140.975L36.4095 101.034L37.0502 99.9263C37.4005 99.3208 38.0851 99.0593 38.7547 99.1937C38.758 99.1945 38.7614 99.1949 38.7648 99.1957C40.1891 99.4584 41.6503 98.2303 41.4314 96.5449L38.4719 73.4847L45.2688 72.552C46.5223 72.3799 47.6751 73.2928 47.8415 74.5857L51.211 100.829C51.4784 102.914 49.1765 104.299 47.5557 103.026V103.026Z" fill="#2FB86E"/>
<path d="M189.848 102.228L167.875 69.2787C166.527 67.2575 163.905 66.6462 161.85 67.8734L133.215 84.974C130.942 86.3311 130.245 89.3899 131.692 91.6556L172.059 154.86L190.788 116.657C193.054 112.033 192.694 106.496 189.848 102.228V102.228Z" fill="#34CB79"/>
<path d="M190.788 116.658L172.057 154.859L165.774 145.019L179.678 116.658C181.945 112.033 181.585 106.497 178.738 102.229L157.542 70.4492L161.852 67.875C163.906 66.6457 166.529 67.2582 167.875 69.2802L189.849 102.229C192.695 106.497 193.055 112.034 190.788 116.658V116.658Z" fill="#2FB86E"/>
</svg>
